<?xml version="1.0" standalone="no"?>

<!DOCTYPE svg PUBLIC "-//W3C//DTD SVG 20010904//EN"
 "http://www.w3.org/TR/2001/REC-SVG-20010904/DTD/svg10.dtd">
<svg version="1.0" xmlns="http://www.w3.org/2000/svg"
 width="500.000000pt" height="500.000000pt" viewBox="0 0 500.000000 500.000000"
 preserveAspectRatio="xMidYMid meet">

<g transform="translate(0.000000,500.000000) scale(0.100000,-0.100000)"
fill="#000000" stroke="none">
<path d="M2360 4120 c-41 -4 -120 -17 -174 -30 -80 -18 -116 -21 -180 -16 -93
7 -203 -5 -326 -35 -194 -49 -338 -126 -456 -244 -98 -98 -156 -204 -181 -331
-14 -74 -18 -82 -48 -98 -40 -22 -117 -95 -156 -149 -58 -80 -82 -212 -58
-317 15 -67 63 -161 109 -213 23 -26 40 -47 37 -47 -2 0 -21 7 -40 15 -50 21
-84 19 -142 -9 -100 -46 -150 -136 -150 -271 0 -90 -8 -80 126 -155 35 -19
100 -63 145 -97 96 -72 134 -93 168 -93 51 0 72 -17 96 -74 l22 -56 -31 -26
c-105 -88 -68 -183 103 -265 59 -29 97 -56 144 -105 75 -76 151 -138 201 -163
46 -23 218 -67 346 -87 135 -22 792 -32 962 -15 247 25 477 71 575 114 67 30
352 338 370 400 7 23 29 71 50 107 53 93 112 247 144 378 l27 112 51 29 c106
59 191 167 264 333 35 79 37 88 37 193 0 125 -11 157 -73 220 -46 47 -88 65
-149 65 -62 0 -112 -14 -157 -45 -41 -28 -56 -31 -56 -12 0 27 -112 242 -172
330 -85 126 -276 316 -398 396 -320 212 -655 297 -1030 261z m-323 -116 c121
-25 258 -104 322 -186 l21 -26 -43 -25 c-23 -14 -50 -34 -60 -45 -17 -18 -10
-17 67 9 47 16 114 32 149 36 297 27 500 -281 308 -468 -32 -30 -63 -50 -97
-60 -53 -15 -196 -19 -257 -6 l-37 8 24 32 c41 55 77 137 92 210 17 80 13 112
-5 52 -34 -107 -138 -239 -244 -310 -67 -45 -186 -91 -271 -105 -74 -12 -178
0 -228 26 l-29 15 17 -26 c9 -15 40 -40 68 -56 l51 -29 -45 0 c-129 0 -271 49
-344 118 l-38 37 25 -50 c28 -57 103 -131 141 -141 56 -14 14 -73 -68 -95 -68
-19 -183 2 -272 50 -53 29 -72 35 -65 23 16 -30 104 -107 139 -121 17 -7 32
-18 32 -24 0 -21 -63 -108 -100 -137 -51 -40 -84 -51 -156 -52 -74 0 -133 24
-186 76 -132 129 -129 385 5 519 74 74 245 136 377 137 47 1 52 2 35 13 -12 7
-63 12 -132 12 -129 0 -125 -4 -93 89 37 108 82 178 175 272 64 64 110 101
160 126 201 104 389 138 562 102z m1540 -413 c41 -26 118 -179 138 -276 20
-94 20 -303 1 -331 -8 -11 -44 -35 -81 -53 -94 -46 -113 -79 -131 -223 -17
-133 -45 -240 -79 -307 -24 -49 -71 -111 -83 -111 -4 0 -26 23 -50 50 l-43 50
21 29 c46 65 73 160 78 276 4 109 4 111 -23 143 -26 31 -101 62 -151 62 -47 0
-65 29 -75 120 -13 116 -43 237 -84 341 -19 47 -35 93 -35 101 0 38 41 68 136
98 124 39 175 47 314 49 97 1 120 -2 147 -18z m635 -453 c59 -18 124 -94 138
-164 36 -172 -115 -459 -294 -559 -34 -19 -104 -50 -155 -69 -102 -38 -161
-74 -197 -121 -35 -46 -71 -132 -84 -201 l-12 -61 -52 15 c-63 18 -73 26 -81
61 -9 40 32 125 115 241 89 124 119 189 126 277 8 90 27 151 81 251 87 162
217 297 315 327 55 17 53 17 100 3z m-1469 -83 c62 -78 131 -190 163 -268 20
-50 64 -201 64 -220 0 -3 -22 3 -48 13 -54 21 -226 57 -314 66 -57 5 -58 6
-68 44 -19 71 -100 120 -175 106 -61 -12 -115 -73 -115 -131 0 -14 -3 -25 -6
-25 -3 0 -52 -9 -107 -21 -283 -57 -509 -202 -651 -417 l-41 -63 -7 59 c-9 85
-42 213 -81 323 l-34 96 30 18 c42 25 105 91 139 148 16 26 35 47 42 47 33 0
120 34 165 65 37 26 75 40 148 56 94 20 227 63 248 79 6 5 42 24 82 44 l71 36
79 -11 c80 -11 257 -5 310 11 45 14 54 9 106 -55z m-286 -331 c26 -16 43 -70
32 -100 -7 -21 -4 -22 85 -28 315 -23 565 -144 723 -349 78 -101 143 -252 177
-413 l7 -31 -73 -21 c-222 -66 -485 -96 -808 -95 -387 2 -754 38 -1060 106
l-145 32 3 30 c5 47 40 152 74 219 97 192 234 324 432 416 86 40 253 87 349
97 l57 6 -6 34 c-11 57 15 97 76 116 19 6 49 -1 77 -19z m-1534 -134 c66 -33
173 -107 230 -159 48 -43 65 -76 78 -149 15 -84 16 -87 70 -154 41 -51 49 -68
49 -102 0 -40 -1 -41 -50 -58 l-50 -16 -30 38 c-40 51 -84 77 -145 85 -72 11
-86 17 -174 87 -44 35 -120 86 -169 113 -78 43 -91 54 -95 80 -2 17 -1 38 2
48 6 16 15 14 96 -27 50 -25 126 -70 170 -100 55 -38 83 -52 90 -45 23 24
-156 152 -284 204 -30 13 -57 29 -60 36 -6 19 30 79 49 79 37 0 213 -97 338
-187 18 -13 26 -13 35 -4 9 10 4 19 -23 42 -67 57 -125 94 -220 141 l-95 47
35 15 c52 22 88 19 153 -14z m430 -687 c-4 -16 -8 -48 -8 -73 l0 -45 149 -37
c249 -62 495 -95 896 -119 386 -22 823 23 1070 113 l65 23 0 45 c0 25 -4 62
-8 83 -8 37 -8 38 20 31 49 -11 143 -66 164 -95 89 -126 -140 -228 -666 -295
-165 -21 -800 -30 -1006 -15 -433 34 -750 111 -845 206 -36 36 -33 86 9 121
28 24 140 82 160 84 4 0 4 -12 0 -27z m975 -530 c224 -4 448 -2 648 7 211 9
308 10 316 2 7 -7 -7 -13 -44 -21 -102 -22 -224 -40 -348 -52 -166 -16 -694
-16 -840 0 -114 12 -341 48 -348 56 -2 2 -1 9 3 16 6 9 42 10 139 5 72 -3 285
-9 474 -13z"/>
<path d="M3507 3507 c-15 -11 -14 -20 8 -103 19 -75 45 -264 45 -336 0 -21 30
-24 48 -6 37 37 -22 423 -68 448 -11 6 -23 5 -33 -3z"/>
<path d="M3374 3496 c-3 -8 6 -60 20 -115 14 -56 31 -160 38 -232 l12 -130 25
3 26 3 -1 105 c-1 106 -21 231 -52 324 -13 39 -22 52 -40 54 -13 2 -24 -3 -28
-12z"/>
<path d="M3235 3480 c-3 -5 3 -39 14 -74 26 -85 48 -201 57 -306 7 -90 16
-105 47 -88 18 9 19 18 13 117 -5 96 -38 263 -65 334 -8 19 -17 27 -35 27 -14
0 -28 -4 -31 -10z"/>
<path d="M3111 3447 c-9 -12 -6 -31 13 -89 25 -72 48 -190 61 -310 6 -53 9
-58 31 -58 14 0 27 7 30 15 17 43 -37 337 -77 420 -16 34 -40 43 -58 22z"/>
</g>
</svg>
