<?xml version="1.0" encoding="utf-8"?>
<!-- Generator: Adobe Illustrator 26.5.0, SVG Export Plug-In . SVG Version: 6.00 Build 0)  -->
<svg version="1.1" id="katman_1" xmlns="http://www.w3.org/2000/svg" xmlns:xlink="http://www.w3.org/1999/xlink" x="0px" y="0px"
	 viewBox="0 0 500 500" style="enable-background:new 0 0 500 500;" xml:space="preserve">
<style type="text/css">
	.st0{fill:#FFFFFF;}
</style>
<g transform="translate(0.000000,500.000000) scale(0.100000,-0.100000)">
	<path class="st0" d="M2281.6,3967.1c-32-5-74-14-94-19c-19-5-56-7-82-4c-135,16-341-53-446-149c-66-60-99-112-119-192
		c-14-51-24-66-70-108c-65-57-96-117-96-181c0-56,28-135,66-184c25-33,25-34,4-23c-46,25-124-11-155-70c-8-16-18-53-21-83l-6-55
		l71-42c40-23,86-54,104-69c42-37,70-51,101-51c20,0,30-9,45-37l19-38l-29-28c-16-16-29-36-29-46c0-29,35-66,87-92
		c26-13,77-51,113-85c79-74,119-95,230-120c74-17,126-19,415-19c274,1,343,4,405,18c168,38,173,41,278,154c53,57,102,119,109,138
		c6,18,18,44,26,57c24,36,73,167,87,230c12,51,17,59,60,87c58,37,91,80,133,169c26,54,32,80,32,134c0,74-16,105-75,146
		c-42,28-75,28-133-1l-46-24l-35,73c-118,248-330,425-595,494C2547.6,3970.1,2366.6,3980.1,2281.6,3967.1z M2129.6,3902.1
		c51-9,125-48,164-89l31-32l-37-28c-21-16-29-25-18-21c42,16,120,35,145,35c72,0,154-49,186-111c18-36,18-102-1-139
		c-26-50-79-75-162-74c-40,0-76,3-79,7c-3,3,8,34,25,68s31,74,31,88c0,22-5,17-30-29c-61-112-188-192-310-194c-36-1-76,3-90,8
		c-25,8-25,8,5-24l30-32l-50,7c-60,9-131,38-164,68l-24,22l16-31c16-31,64-77,89-87c9-3,6-11-10-28c-32-34-119-33-190,2
		c-45,22-50,23-41,6c6-10,30-31,55-46l44-28l-31-42c-51-71-121-88-199-48c-107,54-124,247-29,334c39,35,118,65,187,71
		c82,6,61,22-30,22h-67l9,31c48,167,204,293,395,319C2039.6,3915.1,2053.6,3914.1,2129.6,3902.1z M3058.6,3630.1
		c39-58,57-120,63-209c8-110,2-127-48-149c-58-27-75-54-84-132c-9-90-40-186-70-220l-24-28l-27,27l-27,26l22,44c20,43,41,129,41,174
		c0,37-40,74-95,88l-49,12l-13,82c-7,45-22,108-34,139c-12,32-22,74-23,93c-1,29,4,37,29,49c53,26,127,39,222,40l93,1L3058.6,3630.1
		z M3450.6,3366.1c13-12,29-38,35-57c36-110-74-310-198-359c-161-63-202-99-224-199c-7-30-14-54-16-54s-20,7-40,15
		c-34,14-35,17-30,52c4,21,30,73,61,118c70,105,66,96,77,172c16,116,119,275,208,323C3367.6,3401.1,3417.6,3397.1,3450.6,3366.1z
		 M2521.6,3364.1c27-17,104-149,128-221c14-43,24-80,22-82s-39,5-82,16s-95,20-116,20c-35,0-41,4-58,39c-22,43-36,51-87,51
		c-38,0-70-26-79-63c-6-21-19-27-90-45c-46-11-112-34-147-51c-74-35-170-117-209-179c-31-49-29-50-44,41c-3,21-18,72-32,114l-25,77
		l35,29c20,15,46,44,57,63c13,20,33,37,48,40c15,4,50,19,77,34c28,14,77,32,111,39c33,7,96,29,138,49c78,37,79,37,210,37
		C2450.6,3371.1,2514.6,3368.1,2521.6,3364.1z M2379.6,3140.1c11-10,15-27,13-45c-4-28-4-28,47-28c170,0,366-103,451-236
		c31-49,84-185,84-217c0-15-33-26-160-54c-71-15-131-18-360-18c-286,0-384,8-590,48l-115,23l2,34c4,78,91,221,176,289
		c62,50,171,97,269,117c84,18,87,19,86,46c-1,15,5,34,12,43C2311.6,3162.1,2358.6,3161.1,2379.6,3140.1z M1468.6,3062.1
		c73-39,153-103,164-133c6-15,14-41,17-59c4-17,20-50,36-72c37-52,38-84,2-97c-25-9-32-6-59,23c-21,22-44,34-73,39
		c-28,4-67,25-121,64c-44,32-93,63-110,70c-24,10-30,19-30,41c0,16,2,29,5,29c11,0,112-54,152-81c23-16,48-29,55-29
		c25,1-67,72-134,103c-68,32-83,52-54,76c17,15,67-6,160-66c37-24,71-41,75-38c10,11-57,62-126,98c-66,34-74,43-45,50
		C1414.6,3089.1,1421.6,3087.1,1468.6,3062.1z M1711.6,2636.1c-5-35-3-41,18-49c60-23,276-60,435-76c310-29,605-10,794,52l48,16
		l-5,50c-6,47-5,49,16,42c41-12,76-34,91-55c48-68-92-130-384-170c-142-20-593-17-745,4c-332,46-455,124-318,200c27,15,50,27,52,27
		S1714.6,2659.1,1711.6,2636.1z M2823.6,2340.1c-111-26-265-35-509-30c-220,4-380,20-380,36c0,3,212,6,471,6
		C2804.6,2352.1,2869.6,2350.1,2823.6,2340.1z"/>
	<path class="st0" d="M2990.6,3608.1c-3-5,0-34,8-63c8-30,17-89,21-132c9-95,29-98,33-5C3056.6,3511.1,3014.6,3647.1,2990.6,3608.1z
		"/>
	<path class="st0" d="M2914.6,3592.1c0-7,6-38,14-67c7-29,17-86,21-125c5-56,11-73,22-73c13,0,15,13,10,88c-6,102-31,192-52,192
		C2921.6,3607.1,2914.6,3600.1,2914.6,3592.1z"/>
	<path class="st0" d="M2834.6,3585.1c0-7,7-38,15-68s18-88,21-127c5-50,11-73,20-73c22,0,24,14,14,100c-11,100-36,180-56,180
		C2840.6,3597.1,2834.6,3591.1,2834.6,3585.1z"/>
	<path class="st0" d="M2754.6,3573.1c0-3,9-38,19-78c11-40,23-99,27-130c4-42,10-58,22-58c37,0-13,261-51,268
		C2761.6,3577.1,2754.6,3576.1,2754.6,3573.1z"/>
	<path class="st0" d="M908.6,2222.1c-9-23,3-45,25-45c23,0,35,28,20,46S915.6,2241.1,908.6,2222.1z"/>
	<path class="st0" d="M1016.6,2228.1c-21-13-10-46,16-49c27-4,40,22,22,43C1040.6,2239.1,1034.6,2240.1,1016.6,2228.1z"/>
	<path class="st0" d="M3924.6,2125.1c-18-13-57-53-84-90l-51-67l-5,67c-3,37-9,73-13,80c-12,18-106,14-153-7c-50-23-74-55-74-98
		s39-71,75-55c17,8,25,20,25,37c0,24-3,26-32,23s-33,0-33,22c0,16,11,31,34,47c64,43,66,40,69-171c1-119,7-194,13-203
		c14-16,61-17,77-1c8,8,12,49,12,117c0,62,4,101,9,96c5-6,23-44,40-86c72-174,129-234,214-226c27,2,54,10,60,17c9,9,9,11,0,6
		c-43-24-102,54-195,257l-59,130l48,49c48,49,69,56,104,37c18-9,20-8,17,13C4018.6,2152.1,3969.6,2155.1,3924.6,2125.1z"/>
	<path class="st0" d="M899.6,2115.1c-72-39-108-107-109-203c-2-133,67-214,182-215c62,0,98,16,140,64c94,107,53,323-68,356
		c-66,18-120-20-120-85c0-34,24-75,44-75c25,0,25,27,0,49c-28,24-30,38-8,69c30,44,73,20,93-53c14-52,13-179-2-229
		c-27-87-103-98-142-21c-16,33-20,60-20,150c1,107,4,122,43,198C937.6,2130.1,922.6,2128.1,899.6,2115.1z"/>
	<path class="st0" d="M1244.6,2105.1c-54-28-70-66-45-104c13-20,23-25,48-22c27,3,33,8,35,32c3,26,1,28-22,22c-28-7-40,5-31,33
		c8,26,54,43,106,39c35-2,44-7,43-21c-1-9-45-86-98-171s-96-163-96-175c0-30,36-41,138-41c101,0,149,18,171,64c12,26,12,33,0,55
		c-20,35-73,41-89,11c-15-27-5-40,31-40c17,0,29-5,29-12c-1-36-42-58-110-58c-59,0-73,17-48,59c8,14,52,86,97,160
		c44,73,81,141,81,151C1484.6,2131.1,1320.6,2143.1,1244.6,2105.1z"/>
	<path class="st0" d="M1615.6,2112.1c-78-24-122-85-101-139c19-50,100-42,100,10c0,24-3,26-34,20c-24-5-35-3-39,8
		c-12,30,40,74,106,90l27,6v-193c0-137,3-196,12-205c19-19,66-15,78,7c6,12,10,97,10,206v186l38-7c20-4,45-11,54-15
		c25-13,30-11,26,14c-3,21-7,22-118,24C1699.6,2125.1,1644.6,2121.1,1615.6,2112.1z"/>
	<path class="st0" d="M1958.6,2105.1c-66-51-94-110-94-198c0-144,82-223,216-207c56,6,110,47,135,101c21,47,25,161,6,214
		c-17,46-62,90-106,103c-73,22-131-39-110-115c12-43,44-60,56-30c3,9-3,21-16,30c-41,29-17,103,30,91c33-9,47-35,59-115
		c19-121-13-245-67-258c-30-8-49,2-77,40c-19,24-21,42-21,161c0,123,2,136,23,164c12,16,22,33,22,36
		C2014.6,2134.1,1985.6,2125.1,1958.6,2105.1z"/>
	<path class="st0" d="M2345.6,2112.1c-62-19-91-50-91-97c0-29,6-41,25-54c35-23,75-6,75,31c0,24-3,26-32,23c-27-2-34,1-36,18
		c-4,28,41,64,79,64h29v-188c0-133,4-192,12-200c16-16,63-15,77,1c6,9,12,84,13,203l3,189h25c38,0,63-55,56-124c-5-56-25-87-60-94
		c-11-2-3-5,19-6c50-1,97,26,114,67c13,30,14,31,37,15c34-22,74-4,74,33c0,25-2,26-35,20c-34-7-35-6-35,23c0,24,7,34,30,46
		c16,8,40,15,55,15h25v-187c0-104,4-194,9-201c5-8,22-12,42-10l34,3l3,189c1,119,7,194,13,203c19,23,48,15,65-19c29-57,2-158-43-158
		c-8,0-13-3-11-7c40-89,135-261,153-279c28-28,99-33,131-9c13,10,14,13,3,10c-9-3-26,3-39,13l-23,19l39,19c29,14,46,33,69,77l30,58
		l55-3l54-3l13-44c7-24,18-49,24-57c14-17,68-18,106-2c27,11,27,12,5,16c-22,3-29,15-46,69c-6,18-3,22,21,25c38,4,35,22-4,26
		c-30,3-33,7-48,60c-45,159-56,191-71,203c-22,18-115,24-158,9c-77-25-115-121-61-156c28-18,60-11,75,17c15,27,4,39-33,36
		c-69-5-33,75,40,89c38,7,66-10,59-35c-2-9-16-62-31-118l-27-103h-39c-28,0-39-4-39-15c0-10,11-15,35-15h35l-15-37
		c-17-42-70-96-88-90c-7,2-35,45-63,95c-27,51-57,100-66,109c-15,15-14,18,18,48c29,28,34,39,34,78c0,38-5,49-30,71
		c-39,32-81,40-189,34c-91-6-119-15-162-54l-26-24l-10,23c-18,40-70,57-170,56C2429.6,2126.1,2369.6,2120.1,2345.6,2112.1z
		 M3354.6,1931.1c11-38,20-72,20-76c0-5-21-8-46-8c-33,0-45,4-42,13c3,6,13,42,23,80c10,37,20,66,22,63
		C3333.6,2001.1,3343.6,1969.1,3354.6,1931.1z"/>
	<path class="st0" d="M1604.6,1458.1c0-47,4-81,10-81s10,14,10,30c0,22,5,30,18,30c10,0,26-13,35-30c10-16,23-30,28-30
		c6,0,2,13-7,29c-16,27-16,30-1,46c37,37,14,73-53,82l-40,6V1458.1z M1692.6,1488.1c4-26-12-41-45-41c-20,0-23,5-23,36
		c0,34,1,35,33,32C1682.6,1513.1,1690.6,1507.1,1692.6,1488.1z"/>
	<path class="st0" d="M1794.6,1457.1v-80h45c25,0,45,5,45,10c0,6-18,10-40,10c-36,0-40,3-40,25s4,25,35,25c19,0,35,5,35,10
		c0,6-16,10-35,10c-31,0-35,3-35,25c0,23,4,25,41,25c24,0,38,4,34,10c-3,6-24,10-46,10h-39V1457.1z"/>
	<path class="st0" d="M1960.6,1518.1c-23-26-7-57,33-66c16-3,35-13,42-22c11-13,10-18-6-29c-25-19-31-18-56,7c-26,26-39,16-14-11
		c34-37,95-21,95,26c0,16-11,25-46,39c-31,12-44,22-42,34c5,24,56,27,74,4c12-16,13-17,14-1
		C2054.6,1536.1,1988.6,1549.1,1960.6,1518.1z"/>
	<path class="st0" d="M2114.6,1527.1c0-5,11-10,25-10c24,0,25-2,25-70c0-40,4-70,10-70s10,30,10,70c0,68,1,70,25,70c14,0,25,5,25,10
		c0,6-27,10-60,10S2114.6,1533.1,2114.6,1527.1z"/>
	<path class="st0" d="M2319.6,1512.1c-68-67,23-175,102-120c44,31,37,111-13,134C2370.6,1543.1,2345.6,1539.1,2319.6,1512.1z
		 M2416.6,1500.1c18-16,24-58,10-80c-12-19-55-31-80-22c-42,16-49,96-10,112C2363.6,1521.1,2398.6,1517.1,2416.6,1500.1z"/>
	<path class="st0" d="M2526.6,1456.1c0-46,3-69,5-51c5,42,34,43,63,2c12-16,26-30,31-30c6,0,1,13-10,28c-20,28-20,29,0,45
		c38,33,14,76-49,84l-42,6L2526.6,1456.1z M2611.6,1501.1c10-26-11-49-43-49c-25,0-29,4-32,33c-3,31-2,32,33,32
		C2593.6,1517.1,2607.6,1512.1,2611.6,1501.1z"/>
	<path class="st0" d="M2746.6,1521.1c-24-46-60-144-52-144c5,0,12,9,15,20c9,29,80,28,95-1c24-43,20-9-6,57
		C2766.6,1536.1,2759.6,1545.1,2746.6,1521.1z M2784.6,1440.1c0-8-12-13-30-13c-35,0-34-3-14,46l17,39l13-30
		C2777.6,1466.1,2783.6,1446.1,2784.6,1440.1z"/>
	<path class="st0" d="M2896.6,1455.1l1-83l6,65l6,65l44-62c24-35,48-63,52-63c12,0,11,147-1,155c-5,3-10-21-12-57l-3-63l-43,63
		c-23,34-45,62-47,62C2896.6,1537.1,2895.6,1500.1,2896.6,1455.1z"/>
	<path class="st0" d="M3074.6,1527.1c0-5,13-10,30-10h29l4-72l3-73l2,73c2,70,3,72,27,72c14,0,25,5,25,10c0,6-27,10-60,10
		S3074.6,1533.1,3074.6,1527.1z"/>
</g>
</svg>
